<svg id="visual" viewBox="0 0 900 900" width="900" height="900" xmlns="http://www.w3.org/2000/svg" xmlns:xlink="http://www.w3.org/1999/xlink" version="1.1"><rect x="0" y="0" width="900" height="900" fill="#000023"></rect><path d="M729 0L724.8 18.8C720.7 37.7 712.3 75.3 706 112.8C699.7 150.3 695.3 187.7 693.2 225.2C691 262.7 691 300.3 693.8 337.8C696.7 375.3 702.3 412.7 702.3 450.2C702.3 487.7 696.7 525.3 694.5 562.8C692.3 600.3 693.7 637.7 694.2 675.2C694.7 712.7 694.3 750.3 698.3 787.8C702.3 825.3 710.7 862.7 714.8 881.3L719 900L0 900L0 881.3C0 862.7 0 825.3 0 787.8C0 750.3 0 712.7 0 675.2C0 637.7 0 600.3 0 562.8C0 525.3 0 487.7 0 450.2C0 412.7 0 375.3 0 337.8C0 300.3 0 262.7 0 225.2C0 187.7 0 150.3 0 112.8C0 75.3 0 37.7 0 18.8L0 0Z" fill="#fd49a0"></path><path d="M595 0L601.5 18.8C608 37.7 621 75.3 619.7 112.8C618.3 150.3 602.7 187.7 603 225.2C603.3 262.7 619.7 300.3 624.2 337.8C628.7 375.3 621.3 412.7 617.8 450.2C614.3 487.7 614.7 525.3 617 562.8C619.3 600.3 623.7 637.7 620.7 675.2C617.7 712.7 607.3 750.3 598.8 787.8C590.3 825.3 583.7 862.7 580.3 881.3L577 900L0 900L0 881.3C0 862.7 0 825.3 0 787.8C0 750.3 0 712.7 0 675.2C0 637.7 0 600.3 0 562.8C0 525.3 0 487.7 0 450.2C0 412.7 0 375.3 0 337.8C0 300.3 0 262.7 0 225.2C0 187.7 0 150.3 0 112.8C0 75.3 0 37.7 0 18.8L0 0Z" fill="#e747a2"></path><path d="M512 0L515.7 18.8C519.3 37.7 526.7 75.3 530.5 112.8C534.3 150.3 534.7 187.7 537.3 225.2C540 262.7 545 300.3 538.8 337.8C532.7 375.3 515.3 412.7 506 450.2C496.7 487.7 495.3 525.3 504 562.8C512.7 600.3 531.3 637.7 535.2 675.2C539 712.7 528 750.3 524.2 787.8C520.3 825.3 523.7 862.7 525.3 881.3L527 900L0 900L0 881.3C0 862.7 0 825.3 0 787.8C0 750.3 0 712.7 0 675.2C0 637.7 0 600.3 0 562.8C0 525.3 0 487.7 0 450.2C0 412.7 0 375.3 0 337.8C0 300.3 0 262.7 0 225.2C0 187.7 0 150.3 0 112.8C0 75.3 0 37.7 0 18.8L0 0Z" fill="#d146a3"></path><path d="M423 0L422.7 18.8C422.3 37.7 421.7 75.3 424.3 112.8C427 150.3 433 187.7 437.5 225.2C442 262.7 445 300.3 441 337.8C437 375.3 426 412.7 421.5 450.2C417 487.7 419 525.3 419.8 562.8C420.7 600.3 420.3 637.7 422.3 675.2C424.3 712.7 428.7 750.3 433.5 787.8C438.3 825.3 443.7 862.7 446.3 881.3L449 900L0 900L0 881.3C0 862.7 0 825.3 0 787.8C0 750.3 0 712.7 0 675.2C0 637.7 0 600.3 0 562.8C0 525.3 0 487.7 0 450.2C0 412.7 0 375.3 0 337.8C0 300.3 0 262.7 0 225.2C0 187.7 0 150.3 0 112.8C0 75.3 0 37.7 0 18.8L0 0Z" fill="#ba45a1"></path><path d="M350 0L350.3 18.8C350.7 37.7 351.3 75.3 348.5 112.8C345.7 150.3 339.3 187.7 344.2 225.2C349 262.7 365 300.3 365.7 337.8C366.3 375.3 351.7 412.7 349.7 450.2C347.7 487.7 358.3 525.3 361.3 562.8C364.3 600.3 359.7 637.7 361.2 675.2C362.7 712.7 370.3 750.3 368.8 787.8C367.3 825.3 356.7 862.7 351.3 881.3L346 900L0 900L0 881.3C0 862.7 0 825.3 0 787.8C0 750.3 0 712.7 0 675.2C0 637.7 0 600.3 0 562.8C0 525.3 0 487.7 0 450.2C0 412.7 0 375.3 0 337.8C0 300.3 0 262.7 0 225.2C0 187.7 0 150.3 0 112.8C0 75.3 0 37.7 0 18.8L0 0Z" fill="#a4459e"></path><path d="M259 0L261.7 18.8C264.3 37.7 269.7 75.3 270 112.8C270.3 150.3 265.7 187.7 266 225.2C266.3 262.7 271.7 300.3 273 337.8C274.3 375.3 271.7 412.7 273.7 450.2C275.7 487.7 282.3 525.3 279 562.8C275.7 600.3 262.3 637.7 258.5 675.2C254.7 712.7 260.3 750.3 262.3 787.8C264.3 825.3 262.7 862.7 261.8 881.3L261 900L0 900L0 881.3C0 862.7 0 825.3 0 787.8C0 750.3 0 712.7 0 675.2C0 637.7 0 600.3 0 562.8C0 525.3 0 487.7 0 450.2C0 412.7 0 375.3 0 337.8C0 300.3 0 262.7 0 225.2C0 187.7 0 150.3 0 112.8C0 75.3 0 37.7 0 18.8L0 0Z" fill="#8d439a"></path><path d="M186 0L188.8 18.8C191.7 37.7 197.3 75.3 197.5 112.8C197.7 150.3 192.3 187.7 189.3 225.2C186.3 262.7 185.7 300.3 186.2 337.8C186.7 375.3 188.3 412.7 184.8 450.2C181.3 487.7 172.7 525.3 170.5 562.8C168.3 600.3 172.7 637.7 175.8 675.2C179 712.7 181 750.3 183.3 787.8C185.7 825.3 188.3 862.7 189.7 881.3L191 900L0 900L0 881.3C0 862.7 0 825.3 0 787.8C0 750.3 0 712.7 0 675.2C0 637.7 0 600.3 0 562.8C0 525.3 0 487.7 0 450.2C0 412.7 0 375.3 0 337.8C0 300.3 0 262.7 0 225.2C0 187.7 0 150.3 0 112.8C0 75.3 0 37.7 0 18.8L0 0Z" fill="#764293"></path><path d="M101 0L100.5 18.8C100 37.7 99 75.3 96 112.8C93 150.3 88 187.7 90.7 225.2C93.3 262.7 103.7 300.3 109.5 337.8C115.3 375.3 116.7 412.7 115.5 450.2C114.3 487.7 110.7 525.3 106.7 562.8C102.7 600.3 98.3 637.7 96.7 675.2C95 712.7 96 750.3 100.5 787.8C105 825.3 113 862.7 117 881.3L121 900L0 900L0 881.3C0 862.7 0 825.3 0 787.8C0 750.3 0 712.7 0 675.2C0 637.7 0 600.3 0 562.8C0 525.3 0 487.7 0 450.2C0 412.7 0 375.3 0 337.8C0 300.3 0 262.7 0 225.2C0 187.7 0 150.3 0 112.8C0 75.3 0 37.7 0 18.8L0 0Z" fill="#603f8b"></path></svg>