<svg id="visual" viewBox="0 0 900 900" width="900" height="900" xmlns="http://www.w3.org/2000/svg" xmlns:xlink="http://www.w3.org/1999/xlink" version="1.1"><rect x="0" y="0" width="900" height="900" fill="#001220"></rect><path d="M690 0L698.7 37.5C707.3 75 724.7 150 734 225C743.3 300 744.7 375 735.5 450C726.3 525 706.7 600 699.3 675C692 750 697 825 699.5 862.5L702 900L0 900L0 862.5C0 825 0 750 0 675C0 600 0 525 0 450C0 375 0 300 0 225C0 150 0 75 0 37.5L0 0Z" fill="#48cae4"></path><path d="M587 0L595.5 37.5C604 75 621 150 628 225C635 300 632 375 627.8 450C623.7 525 618.3 600 616 675C613.7 750 614.3 825 614.7 862.5L615 900L0 900L0 862.5C0 825 0 750 0 675C0 600 0 525 0 450C0 375 0 300 0 225C0 150 0 75 0 37.5L0 0Z" fill="#00abd8"></path><path d="M511 0L515.5 37.5C520 75 529 150 527.5 225C526 300 514 375 510.8 450C507.7 525 513.3 600 511.8 675C510.3 750 501.7 825 497.3 862.5L493 900L0 900L0 862.5C0 825 0 750 0 675C0 600 0 525 0 450C0 375 0 300 0 225C0 150 0 75 0 37.5L0 0Z" fill="#008bc8"></path><path d="M400 0L406.8 37.5C413.7 75 427.3 150 427.3 225C427.3 300 413.7 375 412.7 450C411.7 525 423.3 600 430.7 675C438 750 441 825 442.5 862.5L444 900L0 900L0 862.5C0 825 0 750 0 675C0 600 0 525 0 450C0 375 0 300 0 225C0 150 0 75 0 37.5L0 0Z" fill="#006ab3"></path><path d="M326 0L320.5 37.5C315 75 304 150 304.5 225C305 300 317 375 319.2 450C321.3 525 313.7 600 310.3 675C307 750 308 825 308.5 862.5L309 900L0 900L0 862.5C0 825 0 750 0 675C0 600 0 525 0 450C0 375 0 300 0 225C0 150 0 75 0 37.5L0 0Z" fill="#004a9a"></path><path d="M226 0L223.3 37.5C220.7 75 215.3 150 212 225C208.7 300 207.3 375 212 450C216.7 525 227.3 600 225.8 675C224.3 750 210.7 825 203.8 862.5L197 900L0 900L0 862.5C0 825 0 750 0 675C0 600 0 525 0 450C0 375 0 300 0 225C0 150 0 75 0 37.5L0 0Z" fill="#00297d"></path><path d="M93 0L97.8 37.5C102.7 75 112.3 150 112.2 225C112 300 102 375 102.2 450C102.3 525 112.7 600 119.2 675C125.7 750 128.3 825 129.7 862.5L131 900L0 900L0 862.5C0 825 0 750 0 675C0 600 0 525 0 450C0 375 0 300 0 225C0 150 0 75 0 37.5L0 0Z" fill="#03045e"></path></svg>