<svg id="visual" viewBox="0 0 1000 1000" width="1000" height="1000" xmlns="http://www.w3.org/2000/svg" xmlns:xlink="http://www.w3.org/1999/xlink" version="1.1"><rect x="0" y="0" width="1000" height="1000" fill="#001220"></rect><path d="M812 0L811.7 27.8C811.3 55.7 810.7 111.3 815.3 166.8C820 222.3 830 277.7 830.7 333.2C831.3 388.7 822.7 444.3 817 500C811.3 555.7 808.7 611.3 809.2 666.8C809.7 722.3 813.3 777.7 815.3 833.2C817.3 888.7 817.7 944.3 817.8 972.2L818 1000L0 1000L0 972.2C0 944.3 0 888.7 0 833.2C0 777.7 0 722.3 0 666.8C0 611.3 0 555.7 0 500C0 444.3 0 388.7 0 333.2C0 277.7 0 222.3 0 166.8C0 111.3 0 55.7 0 27.8L0 0Z" fill="#48cae4"></path><path d="M720 0L724.2 27.8C728.3 55.7 736.7 111.3 736.7 166.8C736.7 222.3 728.3 277.7 732.8 333.2C737.3 388.7 754.7 444.3 754 500C753.3 555.7 734.7 611.3 728.5 666.8C722.3 722.3 728.7 777.7 730.3 833.2C732 888.7 729 944.3 727.5 972.2L726 1000L0 1000L0 972.2C0 944.3 0 888.7 0 833.2C0 777.7 0 722.3 0 666.8C0 611.3 0 555.7 0 500C0 444.3 0 388.7 0 333.2C0 277.7 0 222.3 0 166.8C0 111.3 0 55.7 0 27.8L0 0Z" fill="#21b5dc"></path><path d="M674 0L667.5 27.8C661 55.7 648 111.3 646 166.8C644 222.3 653 277.7 660.5 333.2C668 388.7 674 444.3 670.2 500C666.3 555.7 652.7 611.3 650.3 666.8C648 722.3 657 777.7 661.8 833.2C666.7 888.7 667.3 944.3 667.7 972.2L668 1000L0 1000L0 972.2C0 944.3 0 888.7 0 833.2C0 777.7 0 722.3 0 666.8C0 611.3 0 555.7 0 500C0 444.3 0 388.7 0 333.2C0 277.7 0 222.3 0 166.8C0 111.3 0 55.7 0 27.8L0 0Z" fill="#00a0d3"></path><path d="M595 0L595.2 27.8C595.3 55.7 595.7 111.3 597.2 166.8C598.7 222.3 601.3 277.7 597.8 333.2C594.3 388.7 584.7 444.3 581.7 500C578.7 555.7 582.3 611.3 585 666.8C587.7 722.3 589.3 777.7 592.7 833.2C596 888.7 601 944.3 603.5 972.2L606 1000L0 1000L0 972.2C0 944.3 0 888.7 0 833.2C0 777.7 0 722.3 0 666.8C0 611.3 0 555.7 0 500C0 444.3 0 388.7 0 333.2C0 277.7 0 222.3 0 166.8C0 111.3 0 55.7 0 27.8L0 0Z" fill="#008bc8"></path><path d="M488 0L487.7 27.8C487.3 55.7 486.7 111.3 486.3 166.8C486 222.3 486 277.7 490.7 333.2C495.3 388.7 504.7 444.3 506.8 500C509 555.7 504 611.3 502.7 666.8C501.3 722.3 503.7 777.7 504.2 833.2C504.7 888.7 503.3 944.3 502.7 972.2L502 1000L0 1000L0 972.2C0 944.3 0 888.7 0 833.2C0 777.7 0 722.3 0 666.8C0 611.3 0 555.7 0 500C0 444.3 0 388.7 0 333.2C0 277.7 0 222.3 0 166.8C0 111.3 0 55.7 0 27.8L0 0Z" fill="#0075bb"></path><path d="M442 0L436.2 27.8C430.3 55.7 418.7 111.3 417 166.8C415.3 222.3 423.7 277.7 427.2 333.2C430.7 388.7 429.3 444.3 428.5 500C427.7 555.7 427.3 611.3 422 666.8C416.7 722.3 406.3 777.7 400.8 833.2C395.3 888.7 394.7 944.3 394.3 972.2L394 1000L0 1000L0 972.2C0 944.3 0 888.7 0 833.2C0 777.7 0 722.3 0 666.8C0 611.3 0 555.7 0 500C0 444.3 0 388.7 0 333.2C0 277.7 0 222.3 0 166.8C0 111.3 0 55.7 0 27.8L0 0Z" fill="#005fab"></path><path d="M317 0L323.5 27.8C330 55.7 343 111.3 347.2 166.8C351.3 222.3 346.7 277.7 341.7 333.2C336.7 388.7 331.3 444.3 329.3 500C327.3 555.7 328.7 611.3 334 666.8C339.3 722.3 348.7 777.7 352.8 833.2C357 888.7 356 944.3 355.5 972.2L355 1000L0 1000L0 972.2C0 944.3 0 888.7 0 833.2C0 777.7 0 722.3 0 666.8C0 611.3 0 555.7 0 500C0 444.3 0 388.7 0 333.2C0 277.7 0 222.3 0 166.8C0 111.3 0 55.7 0 27.8L0 0Z" fill="#004a9a"></path><path d="M234 0L237 27.8C240 55.7 246 111.3 247.2 166.8C248.3 222.3 244.7 277.7 242.2 333.2C239.7 388.7 238.3 444.3 239.3 500C240.3 555.7 243.7 611.3 248.8 666.8C254 722.3 261 777.7 264.2 833.2C267.3 888.7 266.7 944.3 266.3 972.2L266 1000L0 1000L0 972.2C0 944.3 0 888.7 0 833.2C0 777.7 0 722.3 0 666.8C0 611.3 0 555.7 0 500C0 444.3 0 388.7 0 333.2C0 277.7 0 222.3 0 166.8C0 111.3 0 55.7 0 27.8L0 0Z" fill="#003487"></path><path d="M190 0L188.8 27.8C187.7 55.7 185.3 111.3 180.8 166.8C176.3 222.3 169.7 277.7 170 333.2C170.3 388.7 177.7 444.3 180.3 500C183 555.7 181 611.3 177.8 666.8C174.7 722.3 170.3 777.7 169.5 833.2C168.7 888.7 171.3 944.3 172.7 972.2L174 1000L0 1000L0 972.2C0 944.3 0 888.7 0 833.2C0 777.7 0 722.3 0 666.8C0 611.3 0 555.7 0 500C0 444.3 0 388.7 0 333.2C0 277.7 0 222.3 0 166.8C0 111.3 0 55.7 0 27.8L0 0Z" fill="#001e73"></path><path d="M81 0L80.8 27.8C80.7 55.7 80.3 111.3 82.3 166.8C84.3 222.3 88.7 277.7 88.2 333.2C87.7 388.7 82.3 444.3 79.7 500C77 555.7 77 611.3 77.3 666.8C77.7 722.3 78.3 777.7 83.7 833.2C89 888.7 99 944.3 104 972.2L109 1000L0 1000L0 972.2C0 944.3 0 888.7 0 833.2C0 777.7 0 722.3 0 666.8C0 611.3 0 555.7 0 500C0 444.3 0 388.7 0 333.2C0 277.7 0 222.3 0 166.8C0 111.3 0 55.7 0 27.8L0 0Z" fill="#03045e"></path></svg>