<svg id="visual" viewBox="0 0 2000 1000" width="2000" height="1000" xmlns="http://www.w3.org/2000/svg" xmlns:xlink="http://www.w3.org/1999/xlink" version="1.1"><g><g transform="translate(1795 810)"><path d="M0 -25.2L16.2 -19.3L24.8 -4.4L21.9 12.6L8.6 23.7L-8.6 23.7L-21.9 12.6L-24.8 -4.4L-16.2 -19.3Z" fill="#A16AE8"></path></g><g transform="translate(821 962)"><path d="M0 -12L7.7 -9.2L11.8 -2.1L10.4 6L4.1 11.3L-4.1 11.3L-10.4 6L-11.8 -2.1L-7.7 -9.2Z" fill="#A16AE8"></path></g><g transform="translate(1540 723)"><path d="M0 -22L14.1 -16.9L21.7 -3.8L19.1 11L7.5 20.7L-7.5 20.7L-19.1 11L-21.7 -3.8L-14.1 -16.9Z" fill="#A16AE8"></path></g><g transform="translate(1286 318)"><path d="M0 -22L14.1 -16.9L21.7 -3.8L19.1 11L7.5 20.7L-7.5 20.7L-19.1 11L-21.7 -3.8L-14.1 -16.9Z" fill="#A16AE8"></path></g><g transform="translate(1649 147)"><path d="M0 -23L14.8 -17.6L22.7 -4L19.9 11.5L7.9 21.6L-7.9 21.6L-19.9 11.5L-22.7 -4L-14.8 -17.6Z" fill="#A16AE8"></path></g><g transform="translate(245 535)"><path d="M0 -9L5.8 -6.9L8.9 -1.6L7.8 4.5L3.1 8.5L-3.1 8.5L-7.8 4.5L-8.9 -1.6L-5.8 -6.9Z" fill="#A16AE8"></path></g><g transform="translate(847 732)"><path d="M0 -21L13.5 -16.1L20.7 -3.6L18.2 10.5L7.2 19.7L-7.2 19.7L-18.2 10.5L-20.7 -3.6L-13.5 -16.1Z" fill="#A16AE8"></path></g><g transform="translate(670 458)"><path d="M0 -10L6.4 -7.7L9.8 -1.7L8.7 5L3.4 9.4L-3.4 9.4L-8.7 5L-9.8 -1.7L-6.4 -7.7Z" fill="#A16AE8"></path></g><g transform="translate(218 396)"><path d="M0 -9L5.8 -6.9L8.9 -1.6L7.8 4.5L3.1 8.5L-3.1 8.5L-7.8 4.5L-8.9 -1.6L-5.8 -6.9Z" fill="#A16AE8"></path></g><g transform="translate(1492 694)"><path d="M0 -15L9.6 -11.5L14.8 -2.6L13 7.5L5.1 14.1L-5.1 14.1L-13 7.5L-14.8 -2.6L-9.6 -11.5Z" fill="#A16AE8"></path></g><g transform="translate(849 107)"><path d="M0 -3L1.9 -2.3L3 -0.5L2.6 1.5L1 2.8L-1 2.8L-2.6 1.5L-3 -0.5L-1.9 -2.3Z" fill="#A16AE8"></path></g><g transform="translate(1920 585)"><path d="M0 -11L7.1 -8.4L10.8 -1.9L9.5 5.5L3.8 10.3L-3.8 10.3L-9.5 5.5L-10.8 -1.9L-7.1 -8.4Z" fill="#A16AE8"></path></g><g transform="translate(964 60)"><path d="M0 -6L3.9 -4.6L5.9 -1L5.2 3L2.1 5.6L-2.1 5.6L-5.2 3L-5.9 -1L-3.9 -4.6Z" fill="#A16AE8"></path></g><g transform="translate(1088 866)"><path d="M0 -5L3.2 -3.8L4.9 -0.9L4.3 2.5L1.7 4.7L-1.7 4.7L-4.3 2.5L-4.9 -0.9L-3.2 -3.8Z" fill="#A16AE8"></path></g><g transform="translate(186 468)"><path d="M0 -15L9.6 -11.5L14.8 -2.6L13 7.5L5.1 14.1L-5.1 14.1L-13 7.5L-14.8 -2.6L-9.6 -11.5Z" fill="#A16AE8"></path></g><g transform="translate(372 621)"><path d="M0 -3L1.9 -2.3L3 -0.5L2.6 1.5L1 2.8L-1 2.8L-2.6 1.5L-3 -0.5L-1.9 -2.3Z" fill="#A16AE8"></path></g><g transform="translate(92 350)"><path d="M0 -23L14.8 -17.6L22.7 -4L19.9 11.5L7.9 21.6L-7.9 21.6L-19.9 11.5L-22.7 -4L-14.8 -17.6Z" fill="#A16AE8"></path></g><g transform="translate(874 621)"><path d="M0 -21L13.5 -16.1L20.7 -3.6L18.2 10.5L7.2 19.7L-7.2 19.7L-18.2 10.5L-20.7 -3.6L-13.5 -16.1Z" fill="#A16AE8"></path></g><g transform="translate(1182 744)"><path d="M0 -6L3.9 -4.6L5.9 -1L5.2 3L2.1 5.6L-2.1 5.6L-5.2 3L-5.9 -1L-3.9 -4.6Z" fill="#A16AE8"></path></g><g transform="translate(1669 276)"><path d="M0 -15L9.6 -11.5L14.8 -2.6L13 7.5L5.1 14.1L-5.1 14.1L-13 7.5L-14.8 -2.6L-9.6 -11.5Z" fill="#A16AE8"></path></g><g transform="translate(127 404)"><path d="M0 -24L15.4 -18.4L23.6 -4.2L20.8 12L8.2 22.6L-8.2 22.6L-20.8 12L-23.6 -4.2L-15.4 -18.4Z" fill="#A16AE8"></path></g><g transform="translate(1496 319)"><path d="M0 -19L12.2 -14.6L18.7 -3.3L16.5 9.5L6.5 17.9L-6.5 17.9L-16.5 9.5L-18.7 -3.3L-12.2 -14.6Z" fill="#A16AE8"></path></g><g transform="translate(122 203)"><path d="M0 -12L7.7 -9.2L11.8 -2.1L10.4 6L4.1 11.3L-4.1 11.3L-10.4 6L-11.8 -2.1L-7.7 -9.2Z" fill="#A16AE8"></path></g><g transform="translate(982 680)"><path d="M0 -5L3.2 -3.8L4.9 -0.9L4.3 2.5L1.7 4.7L-1.7 4.7L-4.3 2.5L-4.9 -0.9L-3.2 -3.8Z" fill="#A16AE8"></path></g><g transform="translate(996 258)"><path d="M0 -4L2.6 -3.1L3.9 -0.7L3.5 2L1.4 3.8L-1.4 3.8L-3.5 2L-3.9 -0.7L-2.6 -3.1Z" fill="#A16AE8"></path></g><g transform="translate(1499 162)"><path d="M0 -9L5.8 -6.9L8.9 -1.6L7.8 4.5L3.1 8.5L-3.1 8.5L-7.8 4.5L-8.9 -1.6L-5.8 -6.9Z" fill="#A16AE8"></path></g><g transform="translate(334 150)"><path d="M0 -8L5.1 -6.1L7.9 -1.4L6.9 4L2.7 7.5L-2.7 7.5L-6.9 4L-7.9 -1.4L-5.1 -6.1Z" fill="#A16AE8"></path></g><g transform="translate(1787 458)"><path d="M0 -17L10.9 -13L16.7 -3L14.7 8.5L5.8 16L-5.8 16L-14.7 8.5L-16.7 -3L-10.9 -13Z" fill="#A16AE8"></path></g><g transform="translate(533 439)"><path d="M0 -15L9.6 -11.5L14.8 -2.6L13 7.5L5.1 14.1L-5.1 14.1L-13 7.5L-14.8 -2.6L-9.6 -11.5Z" fill="#A16AE8"></path></g><g transform="translate(281 109)"><path d="M0 -14L9 -10.7L13.8 -2.4L12.1 7L4.8 13.2L-4.8 13.2L-12.1 7L-13.8 -2.4L-9 -10.7Z" fill="#A16AE8"></path></g><g transform="translate(1570 883)"><path d="M0 -17L10.9 -13L16.7 -3L14.7 8.5L5.8 16L-5.8 16L-14.7 8.5L-16.7 -3L-10.9 -13Z" fill="#A16AE8"></path></g><g transform="translate(1881 933)"><path d="M0 -11L7.1 -8.4L10.8 -1.9L9.5 5.5L3.8 10.3L-3.8 10.3L-9.5 5.5L-10.8 -1.9L-7.1 -8.4Z" fill="#A16AE8"></path></g><g transform="translate(414 473)"><path d="M0 -23L14.8 -17.6L22.7 -4L19.9 11.5L7.9 21.6L-7.9 21.6L-19.9 11.5L-22.7 -4L-14.8 -17.6Z" fill="#A16AE8"></path></g><g transform="translate(1044 998)"><path d="M0 -16L10.3 -12.3L15.8 -2.8L13.9 8L5.5 15L-5.5 15L-13.9 8L-15.8 -2.8L-10.3 -12.3Z" fill="#A16AE8"></path></g><g transform="translate(1247 59)"><path d="M0 -13L8.4 -10L12.8 -2.3L11.3 6.5L4.4 12.2L-4.4 12.2L-11.3 6.5L-12.8 -2.3L-8.4 -10Z" fill="#A16AE8"></path></g><g transform="translate(1431 736)"><path d="M0 -5L3.2 -3.8L4.9 -0.9L4.3 2.5L1.7 4.7L-1.7 4.7L-4.3 2.5L-4.9 -0.9L-3.2 -3.8Z" fill="#A16AE8"></path></g><g transform="translate(1900 209)"><path d="M0 -17L10.9 -13L16.7 -3L14.7 8.5L5.8 16L-5.8 16L-14.7 8.5L-16.7 -3L-10.9 -13Z" fill="#A16AE8"></path></g><g transform="translate(403 193)"><path d="M0 -19L12.2 -14.6L18.7 -3.3L16.5 9.5L6.5 17.9L-6.5 17.9L-16.5 9.5L-18.7 -3.3L-12.2 -14.6Z" fill="#A16AE8"></path></g><g transform="translate(122 570)"><path d="M0 -22L14.1 -16.9L21.7 -3.8L19.1 11L7.5 20.7L-7.5 20.7L-19.1 11L-21.7 -3.8L-14.1 -16.9Z" fill="#A16AE8"></path></g><g transform="translate(1319 53)"><path d="M0 -9L5.8 -6.9L8.9 -1.6L7.8 4.5L3.1 8.5L-3.1 8.5L-7.8 4.5L-8.9 -1.6L-5.8 -6.9Z" fill="#A16AE8"></path></g><g transform="translate(1563 364)"><path d="M0 -5L3.2 -3.8L4.9 -0.9L4.3 2.5L1.7 4.7L-1.7 4.7L-4.3 2.5L-4.9 -0.9L-3.2 -3.8Z" fill="#A16AE8"></path></g><g transform="translate(935 472)"><path d="M0 -7L4.5 -5.4L6.9 -1.2L6.1 3.5L2.4 6.6L-2.4 6.6L-6.1 3.5L-6.9 -1.2L-4.5 -5.4Z" fill="#A16AE8"></path></g><g transform="translate(1335 109)"><path d="M0 -5L3.2 -3.8L4.9 -0.9L4.3 2.5L1.7 4.7L-1.7 4.7L-4.3 2.5L-4.9 -0.9L-3.2 -3.8Z" fill="#A16AE8"></path></g><g transform="translate(101 496)"><path d="M0 -11L7.1 -8.4L10.8 -1.9L9.5 5.5L3.8 10.3L-3.8 10.3L-9.5 5.5L-10.8 -1.9L-7.1 -8.4Z" fill="#A16AE8"></path></g><g transform="translate(1972 293)"><path d="M0 -8L5.1 -6.1L7.9 -1.4L6.9 4L2.7 7.5L-2.7 7.5L-6.9 4L-7.9 -1.4L-5.1 -6.1Z" fill="#A16AE8"></path></g><g transform="translate(1742 854)"><path d="M0 -23L14.8 -17.6L22.7 -4L19.9 11.5L7.9 21.6L-7.9 21.6L-19.9 11.5L-22.7 -4L-14.8 -17.6Z" fill="#A16AE8"></path></g><g transform="translate(655 847)"><path d="M0 -10L6.4 -7.7L9.8 -1.7L8.7 5L3.4 9.4L-3.4 9.4L-8.7 5L-9.8 -1.7L-6.4 -7.7Z" fill="#A16AE8"></path></g><g transform="translate(580 807)"><path d="M0 -10L6.4 -7.7L9.8 -1.7L8.7 5L3.4 9.4L-3.4 9.4L-8.7 5L-9.8 -1.7L-6.4 -7.7Z" fill="#A16AE8"></path></g><g transform="translate(1824 651)"><path d="M0 -7L4.5 -5.4L6.9 -1.2L6.1 3.5L2.4 6.6L-2.4 6.6L-6.1 3.5L-6.9 -1.2L-4.5 -5.4Z" fill="#A16AE8"></path></g><g transform="translate(1043 339)"><path d="M0 -20L12.9 -15.3L19.7 -3.5L17.3 10L6.8 18.8L-6.8 18.8L-17.3 10L-19.7 -3.5L-12.9 -15.3Z" fill="#A16AE8"></path></g><g transform="translate(1192 915)"><path d="M0 -21L13.5 -16.1L20.7 -3.6L18.2 10.5L7.2 19.7L-7.2 19.7L-18.2 10.5L-20.7 -3.6L-13.5 -16.1Z" fill="#A16AE8"></path></g><g transform="translate(1569 229)"><path d="M0 -20L12.9 -15.3L19.7 -3.5L17.3 10L6.8 18.8L-6.8 18.8L-17.3 10L-19.7 -3.5L-12.9 -15.3Z" fill="#A16AE8"></path></g><g transform="translate(432 908)"><path d="M0 -13L8.4 -10L12.8 -2.3L11.3 6.5L4.4 12.2L-4.4 12.2L-11.3 6.5L-12.8 -2.3L-8.4 -10Z" fill="#A16AE8"></path></g><g transform="translate(1249 608)"><path d="M0 -3L1.9 -2.3L3 -0.5L2.6 1.5L1 2.8L-1 2.8L-2.6 1.5L-3 -0.5L-1.9 -2.3Z" fill="#A16AE8"></path></g><g transform="translate(1660 615)"><path d="M0 -4L2.6 -3.1L3.9 -0.7L3.5 2L1.4 3.8L-1.4 3.8L-3.5 2L-3.9 -0.7L-2.6 -3.1Z" fill="#A16AE8"></path></g><g transform="translate(1057 524)"><path d="M0 -5L3.2 -3.8L4.9 -0.9L4.3 2.5L1.7 4.7L-1.7 4.7L-4.3 2.5L-4.9 -0.9L-3.2 -3.8Z" fill="#A16AE8"></path></g><g transform="translate(802 628)"><path d="M0 -3L1.9 -2.3L3 -0.5L2.6 1.5L1 2.8L-1 2.8L-2.6 1.5L-3 -0.5L-1.9 -2.3Z" fill="#A16AE8"></path></g><g transform="translate(577 214)"><path d="M0 -23L14.8 -17.6L22.7 -4L19.9 11.5L7.9 21.6L-7.9 21.6L-19.9 11.5L-22.7 -4L-14.8 -17.6Z" fill="#A16AE8"></path></g><g transform="translate(984 491)"><path d="M0 -13L8.4 -10L12.8 -2.3L11.3 6.5L4.4 12.2L-4.4 12.2L-11.3 6.5L-12.8 -2.3L-8.4 -10Z" fill="#A16AE8"></path></g><g transform="translate(1426 948)"><path d="M0 -4L2.6 -3.1L3.9 -0.7L3.5 2L1.4 3.8L-1.4 3.8L-3.5 2L-3.9 -0.7L-2.6 -3.1Z" fill="#A16AE8"></path></g><g transform="translate(646 210)"><path d="M0 -19L12.2 -14.6L18.7 -3.3L16.5 9.5L6.5 17.9L-6.5 17.9L-16.5 9.5L-18.7 -3.3L-12.2 -14.6Z" fill="#A16AE8"></path></g><g transform="translate(507 507)"><path d="M0 -12L7.7 -9.2L11.8 -2.1L10.4 6L4.1 11.3L-4.1 11.3L-10.4 6L-11.8 -2.1L-7.7 -9.2Z" fill="#A16AE8"></path></g><g transform="translate(719 339)"><path d="M0 -22L14.1 -16.9L21.7 -3.8L19.1 11L7.5 20.7L-7.5 20.7L-19.1 11L-21.7 -3.8L-14.1 -16.9Z" fill="#A16AE8"></path></g><g transform="translate(1978 630)"><path d="M0 -7L4.5 -5.4L6.9 -1.2L6.1 3.5L2.4 6.6L-2.4 6.6L-6.1 3.5L-6.9 -1.2L-4.5 -5.4Z" fill="#A16AE8"></path></g><g transform="translate(126 56)"><path d="M0 -19L12.2 -14.6L18.7 -3.3L16.5 9.5L6.5 17.9L-6.5 17.9L-16.5 9.5L-18.7 -3.3L-12.2 -14.6Z" fill="#A16AE8"></path></g><g transform="translate(1284 691)"><path d="M0 -5L3.2 -3.8L4.9 -0.9L4.3 2.5L1.7 4.7L-1.7 4.7L-4.3 2.5L-4.9 -0.9L-3.2 -3.8Z" fill="#A16AE8"></path></g><g transform="translate(900 117)"><path d="M0 -23L14.8 -17.6L22.7 -4L19.9 11.5L7.9 21.6L-7.9 21.6L-19.9 11.5L-22.7 -4L-14.8 -17.6Z" fill="#A16AE8"></path></g><g transform="translate(1665 93)"><path d="M0 -22L14.1 -16.9L21.7 -3.8L19.1 11L7.5 20.7L-7.5 20.7L-19.1 11L-21.7 -3.8L-14.1 -16.9Z" fill="#A16AE8"></path></g><g transform="translate(72 802)"><path d="M0 -13L8.4 -10L12.8 -2.3L11.3 6.5L4.4 12.2L-4.4 12.2L-11.3 6.5L-12.8 -2.3L-8.4 -10Z" fill="#A16AE8"></path></g><g transform="translate(639 691)"><path d="M0 -18L11.6 -13.8L17.7 -3.1L15.6 9L6.2 16.9L-6.2 16.9L-15.6 9L-17.7 -3.1L-11.6 -13.8Z" fill="#A16AE8"></path></g><g transform="translate(1357 314)"><path d="M0 -5L3.2 -3.8L4.9 -0.9L4.3 2.5L1.7 4.7L-1.7 4.7L-4.3 2.5L-4.9 -0.9L-3.2 -3.8Z" fill="#A16AE8"></path></g><g transform="translate(1104 617)"><path d="M0 -22L14.1 -16.9L21.7 -3.8L19.1 11L7.5 20.7L-7.5 20.7L-19.1 11L-21.7 -3.8L-14.1 -16.9Z" fill="#A16AE8"></path></g><g transform="translate(184 883)"><path d="M0 -21L13.5 -16.1L20.7 -3.6L18.2 10.5L7.2 19.7L-7.2 19.7L-18.2 10.5L-20.7 -3.6L-13.5 -16.1Z" fill="#A16AE8"></path></g><g transform="translate(182 951)"><path d="M0 -7L4.5 -5.4L6.9 -1.2L6.1 3.5L2.4 6.6L-2.4 6.6L-6.1 3.5L-6.9 -1.2L-4.5 -5.4Z" fill="#A16AE8"></path></g></g></svg>